HIERARCHY
ROOT hip
{
  OFFSET 0 0 0
  CHANNELS 6 Xposition Yposition Zposition Zrotation Yrotation Xrotation
  JOINT abdomen
  {
    OFFSET 0 20.6881 -0.73152
    CHANNELS 3 Zrotation Xrotation Yrotation
    JOINT chest
    {
      OFFSET 0 11.7043 -0.48768
      CHANNELS 3 Zrotation Xrotation Yrotation
      JOINT neck
      {
        OFFSET 0 22.1894 -2.19456
        CHANNELS 3 Zrotation Xrotation Yrotation
        JOINT head
        {
          OFFSET -0.24384 7.07133 1.2192
          CHANNELS 3 Zrotation Xrotation Yrotation
          JOINT leftEye
          {
            OFFSET 4.14528 8.04674 8.04672
            CHANNELS 3 Zrotation Xrotation Yrotation
            End Site
            {
              OFFSET 1 0 0
            }
          }
          JOINT rightEye
          {
            OFFSET -3.6576 8.04674 8.04672
            CHANNELS 3 Zrotation Xrotation Yrotation
            End Site
            {
              OFFSET 1 0 0
            }
          }
        }
      }
      JOINT rCollar
      {
        OFFSET -2.68224 19.2634 -4.8768
        CHANNELS 3 Zrotation Xrotation Yrotation
        JOINT rShldr
        {
          OFFSET -8.77824 -1.95073 1.46304
          CHANNELS 3 Zrotation Xrotation Yrotation
          JOINT rForeArm
          {
            OFFSET -28.1742 -1.7115 0.48768
            CHANNELS 3 Zrotation Xrotation Yrotation
            JOINT rHand
            {
              OFFSET -22.5879 0.773209 7.07136
              CHANNELS 3 Zrotation Xrotation Yrotation
              JOINT rThumb1
              {
                OFFSET -1.2192 -0.487915 3.41376
                CHANNELS 3 Zrotation Xrotation Yrotation
                JOINT rThumb2
                {
                  OFFSET -3.37035 -0.52449 3.41376
                  CHANNELS 3 Zrotation Xrotation Yrotation
                  End Site
                  {
                    OFFSET -1.78271 -1.18214 1.43049
                  }
                }
              }
              JOINT rIndex1
              {
                OFFSET -7.75947 0.938293 5.60832
                CHANNELS 3 Zrotation Xrotation Yrotation
                JOINT rIndex2
                {
                  OFFSET -2.54057 -0.884171 1.56538
                  CHANNELS 3 Zrotation Xrotation Yrotation
                  End Site
                  {
                    OFFSET -1.62519 -0.234802 1.16502
                  }
                }
              }
              JOINT rMid1
              {
                OFFSET -8.24714 1.18213 3.41376
                CHANNELS 3 Zrotation Xrotation Yrotation
                JOINT rMid2
                {
                  OFFSET -3.10165 -0.590103 1.0647
                  CHANNELS 3 Zrotation Xrotation Yrotation
                  End Site
                  {
                    OFFSET -2.48547 -0.328903 0.83742
                  }
                }
              }
              JOINT rRing1
              {
                OFFSET -8.82822 0.546677 1.51678
                CHANNELS 3 Zrotation Xrotation Yrotation
                JOINT rRing2
                {
                  OFFSET -2.60934 -0.819778 -0.0198488
                  CHANNELS 3 Zrotation Xrotation Yrotation
                  End Site
                  {
                    OFFSET -2.33842 -0.294052 0.168128
                  }
                }
              }
              JOINT rPinky1
              {
                OFFSET -8.27202 -0.0477905 -0.4584
                CHANNELS 3 Zrotation Xrotation Yrotation
                JOINT rPinky2
                {
                  OFFSET -1.82734 -0.647385 -0.700984
                  CHANNELS 3 Zrotation Xrotation Yrotation
                  End Site
                  {
                    OFFSET -1.69225 -0.51767 -0.607171
                  }
                }
              }
            }
          }
        }
      }
      JOINT lCollar
      {
        OFFSET 2.68224 19.2634 -4.8768
        CHANNELS 3 Zrotation Xrotation Yrotation
        JOINT lShldr
        {
          OFFSET 8.77824 -1.95073 1.46304
          CHANNELS 3 Zrotation Xrotation Yrotation
          JOINT lForeArm
          {
            OFFSET 28.1742 -1.7115 0.48768
            CHANNELS 3 Zrotation Xrotation Yrotation
            JOINT lHand
            {
              OFFSET 22.5879 0.773209 7.07136
              CHANNELS 3 Zrotation Xrotation Yrotation
              JOINT lThumb1
              {
                OFFSET 1.2192 -0.487915 3.41376
                CHANNELS 3 Zrotation Xrotation Yrotation
                JOINT lThumb2
                {
                  OFFSET 3.37035 -0.52449 3.41376
                  CHANNELS 3 Zrotation Xrotation Yrotation
                  End Site
                  {
                    OFFSET 1.78271 -1.18214 1.43049
                  }
                }
              }
              JOINT lIndex1
              {
                OFFSET 7.75947 0.938293 5.60832
                CHANNELS 3 Zrotation Xrotation Yrotation
                JOINT lIndex2
                {
                  OFFSET 2.54057 -0.884171 1.56538
                  CHANNELS 3 Zrotation Xrotation Yrotation
                  End Site
                  {
                    OFFSET 1.62519 -0.234802 1.16502
                  }
                }
              }
              JOINT lMid1
              {
                OFFSET 8.24714 1.18213 3.41376
                CHANNELS 3 Zrotation Xrotation Yrotation
                JOINT lMid2
                {
                  OFFSET 3.10165 -0.590103 1.0647
                  CHANNELS 3 Zrotation Xrotation Yrotation
                  End Site
                  {
                    OFFSET 2.48547 -0.328903 0.83742
                  }
                }
              }
              JOINT lRing1
              {
                OFFSET 8.82822 0.546677 1.51678
                CHANNELS 3 Zrotation Xrotation Yrotation
                JOINT lRing2
                {
                  OFFSET 2.60934 -0.819778 -0.0198488
                  CHANNELS 3 Zrotation Xrotation Yrotation
                  End Site
                  {
                    OFFSET 2.33842 -0.294052 0.168128
                  }
                }
              }
              JOINT lPinky1
              {
                OFFSET 8.27202 -0.0477905 -0.4584
                CHANNELS 3 Zrotation Xrotation Yrotation
                JOINT lPinky2
                {
                  OFFSET 1.82734 -0.647385 -0.700984
                  CHANNELS 3 Zrotation Xrotation Yrotation
                  End Site
                  {
                    OFFSET 1.69225 -0.51767 -0.607171
                  }
                }
              }
            }
          }
        }
      }
    }
  }
  JOINT rButtock
  {
    OFFSET -8.77824 4.35084 1.2192
    CHANNELS 3 Zrotation Xrotation Yrotation
    JOINT rThigh
    {
      OFFSET 0 -1.70687 -2.19456
      CHANNELS 3 Zrotation Xrotation Yrotation
      JOINT rShin
      {
        OFFSET 0 -36.8199 0.73152
        CHANNELS 3 Zrotation Xrotation Yrotation
        JOINT rFoot
        {
          OFFSET 0.73152 -45.1104 -5.12064
          CHANNELS 3 Zrotation Xrotation Yrotation
          End Site
          {
            OFFSET -1.1221 -3.69964 12.103
          }
        }
      }
    }
  }
  JOINT lButtock
  {
    OFFSET 8.77824 4.35084 1.2192
    CHANNELS 3 Zrotation Xrotation Yrotation
    JOINT lThigh
    {
      OFFSET 0 -1.70687 -2.19456
      CHANNELS 3 Zrotation Xrotation Yrotation
      JOINT lShin
      {
        OFFSET 0 -36.8199 0.73152
        CHANNELS 3 Zrotation Xrotation Yrotation
        JOINT lFoot
        {
          OFFSET -0.73152 -45.1104 -5.12064
          CHANNELS 3 Zrotation Xrotation Yrotation
          End Site
          {
            OFFSET 1.1221 -3.69964 12.103
          }
        }
      }
    }
  }
}
MOTION
Frames:	8
Frame Time:	0.03333333333333333
113.09900000000002 82.2378 -31.0792 716.499 47.6821 3.8528 1.85756 -2.98673 11.2191 -1.61568 1.36471 3.2426400000000006 -1.11885 7.48832 -7.842629999999999 8.32916 3.63605 -14.5646 -0.0 0.0 0.0 -0.0 0.0 0.0 3.61621e-14 -2.35775e-13 -3.72833e-13 66.5801 54.213 9.4539 -28.2413 -32.3056 70.9288 -0.461041 22.4653 3.25251 -2.17752e-10 -7.0276e-10 -5.5631e-10 -3.72201e-10 -1.2071e-09 -9.33291e-10 -2.1774700000000002e-10 -7.02763e-10 -5.56316e-10 7.730910000000001 5.47488 0.417314 -2.17752e-10 -7.02763e-10 -5.56299e-10 2.9055400000000002 0.965183 0.102902 -2.1774800000000003e-10 -7.02763e-10 -5.563030000000001e-10 10.2786 0.731801 0.0259123 -2.17754e-10 -7.02762e-10 -5.56293e-10 2.22167 -0.733487 -0.20892 3.60768e-14 -2.35774e-13 -3.72942e-13 -85.9423 47.3735 16.3167 27.6823 -28.913 -65.3541 0.0367327 -6.22299 0.877469 -4.4511900000000005e-10 -6.87731e-10 7.64182e-10 -7.65499e-10 -1.1828300000000001e-09 1.3165400000000003e-09 -4.45114e-10 -6.87723e-10 7.64186e-10 -7.730910000000001 5.47488 -0.417314 -4.4511600000000003e-10 -6.87727e-10 7.6418e-10 -2.9055400000000002 0.965183 -0.102902 -4.45127e-10 -6.87727e-10 7.64183e-10 -10.2786 0.731801 -0.0259123 -4.4511700000000004e-10 -6.87729e-10 7.64176e-10 -2.22167 -0.733487 0.20892 -2.03217e-16 0.0 -3.88251e-19 -3.74775 -18.949 2.36503 -0.0419308 24.004 0.547218 -5.13861 -13.7642 -16.8317 2.03217e-16 0.0 3.88251e-19 13.6468 -25.7396 -5.10141 0.144604 27.354 -0.52478 2.39442 -10.2804 8.34303
111.91419999999998 81.4819 -30.3701 715.007 52.9493 1.773 3.84819 -1.5265700000000002 10.5116 -1.03201 1.5851 3.03405 -1.26411 7.25723 -7.608910000000001 9.0297 3.03212 -14.0376 -0.0 0.0 0.0 -0.0 0.0 0.0 -7.50841e-14 2.61804e-13 1.87702e-13 66.7904 57.273 14.2515 -28.1746 -31.7809 70.1008 -0.109603 9.39957 1.33312 1.6164e-09 1.1414699999999999e-10 -7.38509e-10 2.78445e-09 1.97796e-10 -1.29015e-09 1.61641e-09 1.14141e-10 -7.38509e-10 7.730910000000001 5.47488 0.417314 1.6164e-09 1.1413999999999999e-10 -7.38496e-10 2.9055400000000002 0.965183 0.102902 1.6164e-09 1.14141e-10 -7.38497e-10 10.2786 0.731801 0.0259123 1.6164e-09 1.14143e-10 -7.38483e-10 2.22167 -0.733487 -0.20892 -7.51523e-14 2.61794e-13 1.87553e-13 -86.7361 45.7037 16.6449 27.9754 -30.467399999999998 -67.9952 0.146731 -10.8549 1.54426 3.19518e-11 1.22827e-09 -1.45802e-09 6.24061e-11 2.12525e-09 -2.51689e-09 3.19522e-11 1.22828e-09 -1.45802e-09 -7.730910000000001 5.47488 -0.417314 3.1955200000000007e-11 1.22828e-09 -1.45803e-09 -2.9055400000000002 0.965183 -0.102902 3.19448e-11 1.22828e-09 -1.45802e-09 -10.2786 0.731801 -0.0259123 3.19509e-11 1.22827e-09 -1.45803e-09 -2.22167 -0.733487 0.20892 -2.03217e-16 0.0 -3.88251e-19 -1.3127500000000003 -18.1518 0.446618 -0.026074800000000002 24.792 0.614436 -6.20274 -14.7686 -19.3307 2.03217e-16 0.0 3.88251e-19 14.406099999999999 -30.984200000000005 -4.3427 0.23794299999999996 34.8653 -0.701781 2.76645 -8.9318 10.1595
110.25489999999999 81.0578 -29.7896 711.338 57.1289 -1.3688 5.83192 -0.533416 10.8588 -1.02671 1.39635 3.13746 -1.27156 7.11041 -7.867040000000001 9.45702 2.70118 -14.475299999999999 -0.0 0.0 0.0 -0.0 0.0 0.0 -5.37217e-14 1.05281e-12 -2.7268e-13 69.2454 58.324 16.6836 -28.1625 -31.7074 70.0021 -0.0888895 4.95862 0.7167480000000002 -5.70352e-10 -4.721e-10 8.591520000000001e-10 -9.83171e-10 -8.18404e-10 1.48447e-09 -5.70344e-10 -4.72106e-10 8.591480000000001e-10 7.730910000000001 5.47488 0.417314 -5.70349e-10 -4.72108e-10 8.591560000000001e-10 2.9055400000000002 0.965183 0.102902 -5.70346e-10 -4.72108e-10 8.59159e-10 10.2786 0.731801 0.0259123 -5.70354e-10 -4.72104e-10 8.59167e-10 2.22167 -0.733487 -0.20892 -5.37528e-14 1.0528e-12 -2.72888e-13 -86.1537 44.9715 16.0878 28.1352 -31.504100000000005 -69.6828 0.284882 -15.242799999999999 2.1917 6.42157e-10 7.15313e-10 -1.4596200000000002e-09 1.12644e-09 1.23579e-09 -2.51281e-09 6.42155e-10 7.15323e-10 -1.45961e-09 -7.730910000000001 5.47488 -0.417314 6.4216e-10 7.15319e-10 -1.4596200000000002e-09 -2.9055400000000002 0.965183 -0.102902 6.42155e-10 7.15317e-10 -1.45961e-09 -10.2786 0.731801 -0.0259123 6.42159e-10 7.15319e-10 -1.4596200000000002e-09 -2.22167 -0.733487 0.20892 -2.03217e-16 0.0 -3.88251e-19 0.312987 -19.1071 -2.07953 -0.0274486 26.6453 0.69491 -6.91647 -15.5623 -20.6395 2.03217e-16 0.0 3.88251e-19 13.9749 -36.8141 -3.35825 0.401295 43.822900000000004 -0.93478 2.85836 -8.03508 10.609
109.16210000000001 80.636 -29.368499999999997 709.956 60.7286 -2.8091 7.5725 0.102506 11.7821 -1.06831 1.13121 3.40979 -1.27042 7.03332 -8.31047 9.85906 2.44417 -15.272200000000002 -0.0 0.0 0.0 -0.0 0.0 0.0 -1.31449e-14 1.78966e-12 -7.80776e-13 70.902 58.4445 19.5798 -28.1477 -31.580000000000002 69.7778 -0.0242867 4.44433 0.625879 -2.59478e-09 -1.25502e-09 1.99439e-09 -4.47121e-09 -2.17281e-09 3.46425e-09 -2.5947700000000005e-09 -1.25503e-09 1.99438e-09 7.730910000000001 5.47488 0.417314 -2.59478e-09 -1.25503e-09 1.99439e-09 2.9055400000000002 0.965183 0.102902 -2.5947700000000005e-09 -1.25503e-09 1.99439e-09 10.2786 0.731801 0.0259123 -2.59479e-09 -1.25503e-09 1.99439e-09 2.22167 -0.733487 -0.20892 -1.31452e-14 1.78966e-12 -7.81025e-13 -84.7891 44.5913 15.0437 28.241400000000002 -32.32790000000001 -70.9824 0.44525600000000004 -18.6248 2.71483 1.13084e-09 -2.52247e-10 -5.46919e-10 1.97204e-09 -4.39464e-10 -9.309160000000001e-10 1.13083e-09 -2.52231e-10 -5.46893e-10 -7.730910000000001 5.47488 -0.417314 1.13084e-09 -2.5224e-10 -5.46915e-10 -2.9055400000000002 0.965183 -0.102902 1.13084e-09 -2.52244e-10 -5.46911e-10 -10.2786 0.731801 -0.0259123 1.13084e-09 -2.52238e-10 -5.46915e-10 -2.22167 -0.733487 0.20892 -2.03217e-16 0.0 -3.88251e-19 1.6184 -20.402 -4.30339 -0.036993 28.4351 0.758051 -7.42498 -16.1817 -21.391 2.03217e-16 0.0 3.88251e-19 13.4366 -41.9202 -1.9689800000000002 0.673471 52.5943 -1.24182 2.65479 -6.67964 10.2068
108.00640000000001 80.4347 -28.5424 707.032 62.2769 -5.3215 8.76098 0.270927 13.5948 -0.742741 1.07832 3.93489 -1.31978 7.03719 -8.79572 10.566900000000002 2.1019 -16.1442 -0.0 0.0 0.0 -0.0 0.0 0.0 -3.46441e-14 1.4503100000000001e-12 -5.19427e-13 68.9765 57.8626 25.38 -28.0625 -31.023899999999998 68.9353 -0.046563400000000005 6.381340000000001 0.9003580000000001 -5.80845e-10 -1.49709e-09 -7.16455e-11 -1.00512e-09 -2.58998e-09 -1.18048e-10 -5.8084e-10 -1.4971e-09 -7.16539e-11 7.730910000000001 5.47488 0.417314 -5.80848e-10 -1.4971e-09 -7.16374e-11 2.9055400000000002 0.965183 0.102902 -5.80836e-10 -1.4971e-09 -7.16467e-11 10.2786 0.731801 0.0259123 -5.80849e-10 -1.4971e-09 -7.16421e-11 2.22167 -0.733487 -0.20892 -3.46626e-14 1.4503100000000001e-12 -5.19626e-13 -82.5609 44.4784 13.3746 28.2955 -32.888 -71.9181 0.467416 -18.951 2.7677 1.0150200000000003e-09 -5.33774e-10 1.30884e-09 1.74219e-09 -9.30058e-10 2.27158e-09 1.01501e-09 -5.33766e-10 1.30886e-09 -7.730910000000001 5.47488 -0.417314 1.0150200000000003e-09 -5.33772e-10 1.30884e-09 -2.9055400000000002 0.965183 -0.102902 1.0150200000000003e-09 -5.33774e-10 1.30884e-09 -10.2786 0.731801 -0.0259123 1.0150200000000003e-09 -5.33771e-10 1.30884e-09 -2.22167 -0.733487 0.20892 -2.03217e-16 0.0 -3.88251e-19 3.36525 -21.0801 -5.1654 -0.0398206 29.138400000000004 0.761086 -7.769820000000001 -16.6501 -21.765 2.03217e-16 0.0 3.88251e-19 13.9298 -44.7238 0.351064 1.02486 59.4258 -1.56093 2.00111 -3.6565700000000003 8.99558
107.0853 80.3539 -27.854400000000002 705.241 63.2843 -6.9608 9.61843 0.171433 15.586000000000002 -0.39776 1.06092 4.51182 -1.35313 7.05749 -9.29867 11.1858 1.74927 -17.0598 -0.0 0.0 0.0 -0.0 0.0 0.0 -7.71102e-14 2.0922e-12 -1.6688e-13 66.314 56.3261 31.894699999999997 -27.9145 -30.1247 67.44770000000001 -0.11392200000000001 9.58084 1.35932 2.1357e-09 -1.77323e-09 -2.41792e-09 3.6728500000000006e-09 -3.06711e-09 -4.19095e-09 2.1357e-09 -1.77323e-09 -2.41793e-09 7.730910000000001 5.47488 0.417314 2.13569e-09 -1.77323e-09 -2.4179e-09 2.9055400000000002 0.965183 0.102902 2.13571e-09 -1.7732399999999998e-09 -2.41792e-09 10.2786 0.731801 0.0259123 2.1357e-09 -1.7732399999999998e-09 -2.41791e-09 2.22167 -0.733487 -0.20892 -7.71518e-14 2.09221e-12 -1.67029e-13 -79.6717 44.4055 11.199900000000001 28.347000000000005 -33.4385 -72.7831 0.446469 -18.6491 2.71863 8.990890000000001e-10 -5.32304e-10 3.10376e-09 1.50884e-09 -9.30379e-10 5.3711e-09 8.990800000000001e-10 -5.32305e-10 3.10377e-09 -7.730910000000001 5.47488 -0.417314 8.990860000000001e-10 -5.32307e-10 3.10376e-09 -2.9055400000000002 0.965183 -0.102902 8.990830000000001e-10 -5.32307e-10 3.10375e-09 -10.2786 0.731801 -0.0259123 8.990900000000001e-10 -5.32307e-10 3.10374e-09 -2.22167 -0.733487 0.20892 -2.03217e-16 0.0 -3.88251e-19 5.00098 -21.614700000000003 -5.45918 -0.0407428 29.3877 0.7298590000000001 -7.885810000000001 -16.83 -21.7886 2.03217e-16 0.0 3.88251e-19 14.3924 -46.0962 2.21711 1.44142 64.9033 -1.9282500000000002 1.32549 -0.507317 7.06651
106.4768 80.3511 -27.2909 704.618 63.7991 -7.9069 10.1492 -0.0106097 17.051 -0.26715 1.006 4.94029 -1.29437 6.99881 -9.76201 11.3815 1.37511 -17.9288 -0.0 0.0 0.0 -0.0 0.0 0.0 -1.69197e-13 7.51843e-12 -2.76454e-13 64.9669 53.760000000000005 37.8855 -27.616 -28.6454 65.0591 -0.195013 12.6215 1.8022099999999999 3.5491900000000002e-09 -2.96553e-09 -2.58494e-09 6.11435e-09 -5.13614e-09 -4.49449e-09 3.5492e-09 -2.96554e-09 -2.58494e-09 7.730910000000001 5.47488 0.417314 3.5491900000000002e-09 -2.96554e-09 -2.5849200000000002e-09 2.9055400000000002 0.965183 0.102902 3.5492e-09 -2.96554e-09 -2.58494e-09 10.2786 0.731801 0.0259123 3.5491900000000002e-09 -2.96554e-09 -2.58493e-09 2.22167 -0.733487 -0.20892 -1.69219e-13 7.51764e-12 -2.76587e-13 -76.2202 43.9927 8.642720000000002 28.4043 -34.2667 -74.1062 0.5052 -19.7881 2.89829 1.6570300000000002e-09 -1.1652700000000004e-10 3.96974e-09 2.79856e-09 -2.11446e-10 6.88599e-09 1.6570300000000002e-09 -1.16528e-10 3.96975e-09 -7.730910000000001 5.47488 -0.417314 1.6570300000000002e-09 -1.1652700000000004e-10 3.96974e-09 -2.9055400000000002 0.965183 -0.102902 1.6570300000000002e-09 -1.16528e-10 3.96974e-09 -10.2786 0.731801 -0.0259123 1.6570300000000002e-09 -1.1652700000000004e-10 3.96973e-09 -2.22167 -0.733487 0.20892 -2.03217e-16 0.0 -3.88251e-19 6.08746 -22.0842 -5.65761 -0.0432583 29.43 0.674902 -7.73082 -16.4997 -21.6142 2.03217e-16 0.0 3.88251e-19 13.8053 -46.5122 1.92276 1.9328 69.1757 -2.38834 0.781465 1.59015 4.00057
105.66980000000001 80.3658 -26.9071 702.695 64.3679 -8.7474 10.6662 -0.344613 18.2907 -0.272243 0.891914 5.30226 -1.23982 6.96753 -10.141 11.3212 1.07472 -18.6437 -0.0 0.0 0.0 -0.0 0.0 0.0 -1.82906e-13 1.147e-11 -4.05769e-13 64.4075 50.728 43.2399 -27.1394 -26.8148 62.1789 -0.273621 14.727099999999998 2.11707 3.5453900000000003e-09 -3.41498e-09 -1.92695e-09 6.11213e-09 -5.91735e-09 -3.3614e-09 3.5453900000000003e-09 -3.41498e-09 -1.92696e-09 7.730910000000001 5.47488 0.417314 3.5453900000000003e-09 -3.4149899999999996e-09 -1.92695e-09 2.9055400000000002 0.965183 0.102902 3.5453900000000003e-09 -3.41498e-09 -1.92695e-09 10.2786 0.731801 0.0259123 3.5453900000000003e-09 -3.4149899999999996e-09 -1.92695e-09 2.22167 -0.733487 -0.20892 -1.82919e-13 1.147e-11 -4.06018e-13 -72.6049 43.5926 5.68083 28.426500000000004 -35.0433 -75.4167 0.59575 -21.3836 3.15463 1.99708e-09 2.51156e-10 3.5281300000000003e-09 3.39053e-09 4.2709400000000006e-10 6.13327e-09 1.99707e-09 2.51155e-10 3.5281400000000006e-09 -7.730910000000001 5.47488 -0.417314 1.99708e-09 2.51159e-10 3.5281200000000004e-09 -2.9055400000000002 0.965183 -0.102902 1.99707e-09 2.51156e-10 3.5281200000000004e-09 -10.2786 0.731801 -0.0259123 1.99708e-09 2.51158e-10 3.52811e-09 -2.22167 -0.733487 0.20892 -2.03217e-16 0.0 -3.88251e-19 6.84428 -22.6412 -5.730410000000001 -0.0494179 29.3987 0.606916 -7.343989999999999 -15.899200000000002 -21.0681 2.03217e-16 0.0 3.88251e-19 12.7461 -45.8444 0.548329 2.35591 71.7988 -2.78709 0.46984 2.62761 1.15948
